<svg xmlns="http://www.w3.org/2000/svg" xmlns:xlink="http://www.w3.org/1999/xlink" version="1.1" x="0px" y="0px" viewBox="0 0 64 80" enable-background="new 0 0 64 64" xml:space="preserve"><g><path d="M32.003,64.006C14.353,64.006-0.006,49.648-0.006,32c0-17.648,14.359-32.006,32.009-32.006   c17.646,0,32.003,14.358,32.003,32.006C64.006,49.648,49.649,64.006,32.003,64.006z M32.003,1.994   C15.456,1.994,1.994,15.455,1.994,32c0,16.545,13.462,30.006,30.009,30.006c16.544,0,30.003-13.461,30.003-30.006   C62.006,15.455,48.547,1.994,32.003,1.994z"/><g><ellipse cx="20.968" cy="23.228" rx="4.47" ry="5.726"/><ellipse cx="43.034" cy="23.228" rx="4.467" ry="5.726"/></g><g><path d="M14.096,47.101l-1.379-1.449c6.468-6.158,13.343-9.152,20.463-8.896c11.146,0.401,18.724,8.6,19.041,8.948l-1.479,1.347    c-0.072-0.08-7.357-7.936-17.652-8.297C26.522,38.539,20.154,41.332,14.096,47.101z"/><rect x="50.043" y="43.085" transform="matrix(0.8266 0.5628 -0.5628 0.8266 34.9397 -20.6877)" width="1.999" height="6.544"/><rect x="10.347" y="45.357" transform="matrix(0.5629 0.8265 -0.8265 0.5629 44.2679 9.0069)" width="6.543" height="2"/></g></g><text x="0" y="79" fill="#000000" font-size="5px" font-weight="bold" font-family="'Helvetica Neue', Helvetica, Arial-Unicode, Arial, Sans-serif">Created by Creative Stall</text><text x="0" y="84" fill="#000000" font-size="5px" font-weight="bold" font-family="'Helvetica Neue', Helvetica, Arial-Unicode, Arial, Sans-serif">from the Noun Project</text></svg>